<?xml version="1.0" standalone="no"?><!DOCTYPE svg PUBLIC "-//W3C//DTD SVG 1.1//EN" "http://www.w3.org/Graphics/SVG/1.1/DTD/svg11.dtd"><svg t="1534941115042" class="icon" style="" viewBox="0 0 1024 1024" version="1.1" xmlns="http://www.w3.org/2000/svg" p-id="2091" xmlns:xlink="http://www.w3.org/1999/xlink" width="200" height="200"><defs><style type="text/css"></style></defs><path d="M1018.639046 895.965681l-255.700162-420.155733a43.364482 43.364482 0 0 0-35.012376-20.77189 43.443957 43.443957 0 0 0-36.789727 17.419488L579.676625 622.188556l-185.176886-304.281098a43.386157 43.386157 0 0 0-35.012376-20.77189 43.321132 43.321132 0 0 0-36.796952 17.419487L9.919932 734.710788a43.350032 43.350032 0 0 0 69.547901 51.781613L353.859084 417.894306l222.284513 365.245693a43.313907 43.313907 0 0 0 59.562944 14.49336 43.342807 43.342807 0 0 0 14.49336-59.562943l-21.906216-35.994977 94.011769-126.278642 222.284513 365.245692a43.313907 43.313907 0 0 0 59.562943 14.493361 43.350032 43.350032 0 0 0 14.486136-59.570169zM864.190108 361.040739c82.697411 0 149.97666-67.272024 149.97666-149.962209s-67.279249-149.969435-149.97666-149.969435c-82.690186 0-149.969435 67.279249-149.969435 149.969435s67.279249 149.96221 149.969435 149.962209z m0-213.231581c34.889551 0 63.276596 28.379821 63.276596 63.269372 0 34.882326-28.387046 63.262146-63.276596 63.262146-34.882326 0-63.269371-28.379821-63.269371-63.262146 0-34.889551 28.387046-63.269371 63.269371-63.269372z" fill="#e6e6e6" p-id="2092"></path></svg>